<?xml version="1.0" encoding="UTF-8"?>
<svg width="870px" height="204px" viewBox="0 0 870 204" version="1.1" xmlns="http://www.w3.org/2000/svg" xmlns:xlink="http://www.w3.org/1999/xlink">
    <!-- Generator: Sketch 50.2 (55047) - http://www.bohemiancoding.com/sketch -->
    <title>Logo inverted/Stocard logo inverted</title>
    <desc>Created with Sketch.</desc>
    <defs></defs>
    <g id="Logo-inverted/Stocard-logo-inverted" stroke="none" stroke-width="1" fill="none" fill-rule="evenodd">
        <path d="M302.81,77.53 C297.749975,71.8833051 290.600046,69.06 281.36,69.06 C273.733295,69.06 268.178351,70.5083189 264.695,73.405 C261.211649,76.3016812 259.47,80.2066421 259.47,85.12 C259.47,87.6133458 259.909996,89.6849918 260.79,91.335 C261.670004,92.9850082 263.044991,94.3966608 264.915,95.57 C266.785009,96.7433392 269.149986,97.7333293 272.01,98.54 C274.870014,99.3466707 278.316646,100.189996 282.35,101.07 C286.530021,101.950004 290.324983,102.921661 293.735,103.985 C297.145017,105.048339 300.041655,106.386659 302.425,108 C304.808345,109.613341 306.64166,111.593322 307.925,113.94 C309.20834,116.286678 309.85,119.183316 309.85,122.63 C309.85,126.076684 309.171673,129.08332 307.815,131.65 C306.458327,134.216679 304.551679,136.361658 302.095,138.085 C299.638321,139.808342 296.705017,141.109996 293.295,141.99 C289.884983,142.870004 286.090021,143.31 281.91,143.31 C269.736606,143.31 259.433375,139.423372 251,131.65 L253.97,127.14 C257.270016,130.586684 261.303309,133.318323 266.07,135.335 C270.83669,137.351677 276.18997,138.36 282.13,138.36 C288.950034,138.36 294.284981,137.113346 298.135,134.62 C301.985019,132.126654 303.91,128.350025 303.91,123.29 C303.91,120.72332 303.396672,118.541676 302.37,116.745 C301.343328,114.948324 299.821677,113.390007 297.805,112.07 C295.788323,110.749993 293.240015,109.613338 290.16,108.66 C287.079985,107.706662 283.486687,106.790004 279.38,105.91 C275.199979,105.029996 271.515016,104.095005 268.325,103.105 C265.134984,102.114995 262.458344,100.868341 260.295,99.365 C258.131656,97.8616592 256.500005,96.0466773 255.4,93.92 C254.299994,91.7933227 253.75,89.1166828 253.75,85.89 C253.75,82.3699824 254.428327,79.2533469 255.785,76.54 C257.141673,73.8266531 259.029988,71.5350093 261.45,69.665 C263.870012,67.7949906 266.76665,66.3833381 270.14,65.43 C273.51335,64.4766619 277.253313,64 281.36,64 C286.420025,64 290.92998,64.7516592 294.89,66.255 C298.85002,67.7583409 302.443317,70.0499846 305.67,73.13 L302.81,77.53 Z M387.94,69.61 L359.34,69.61 L359.34,142.65 L353.73,142.65 L353.73,69.61 L325.13,69.61 L325.13,64.55 L387.94,64.55 L387.94,69.61 Z M437.54,143.2 C432.113306,143.2 427.163356,142.063345 422.69,139.79 C418.216644,137.516655 414.366683,134.546685 411.14,130.88 C407.913317,127.213315 405.420009,122.99669 403.66,118.23 C401.899991,113.46331 401.02,108.586692 401.02,103.6 C401.02,98.3933073 401.954991,93.4066905 403.825,88.64 C405.695009,83.8733095 408.26165,79.656685 411.525,75.99 C414.78835,72.323315 418.656644,69.4083442 423.13,67.245 C427.603356,65.0816559 432.443307,64 437.65,64 C443.076694,64 448.044977,65.1549885 452.555,67.465 C457.065023,69.7750116 460.914984,72.7999813 464.105,76.54 C467.295016,80.2800187 469.769991,84.5149763 471.53,89.245 C473.290009,93.9750236 474.17,98.7599758 474.17,103.6 C474.17,108.880026 473.235009,113.90331 471.365,118.67 C469.494991,123.43669 466.92835,127.634982 463.665,131.265 C460.40165,134.895018 456.533356,137.791656 452.06,139.955 C447.586644,142.118344 442.746693,143.2 437.54,143.2 L437.54,143.2 Z M406.63,103.6 C406.63,108.073356 407.381659,112.381646 408.885,116.525 C410.388341,120.668354 412.514986,124.334984 415.265,127.525 C418.015014,130.715016 421.296648,133.263324 425.11,135.17 C428.923352,137.076676 433.103311,138.03 437.65,138.03 C442.343357,138.03 446.578314,137.04001 450.355,135.06 C454.131686,133.07999 457.35832,130.45835 460.035,127.195 C462.71168,123.93165 464.783326,120.246687 466.25,116.14 C467.716674,112.033313 468.45,107.853355 468.45,103.6 C468.45,99.1266443 467.680008,94.818354 466.14,90.675 C464.599992,86.5316459 462.455014,82.8650159 459.705,79.675 C456.954986,76.484984 453.710019,73.9366762 449.97,72.03 C446.229981,70.1233238 442.123356,69.17 437.65,69.17 C432.956643,69.17 428.703352,70.1599901 424.89,72.14 C421.076648,74.1200099 417.813347,76.7416503 415.1,80.005 C412.386653,83.2683496 410.296674,86.9533128 408.83,91.06 C407.363326,95.1666872 406.63,99.3466454 406.63,103.6 L406.63,103.6 Z M493.85,103.05 C493.85,98.3566432 494.674992,93.68169 496.325,89.025 C497.975008,84.3683101 500.376651,80.206685 503.53,76.54 C506.683349,72.873315 510.551644,69.8850116 515.135,67.575 C519.718356,65.2649885 524.943304,64.11 530.81,64.11 C537.776701,64.11 543.716642,65.7049841 548.63,68.895 C553.543358,72.085016 557.209988,76.1733084 559.63,81.16 L555.01,83.8 C553.61666,81.0866531 551.985009,78.8133425 550.115,76.98 C548.244991,75.1466575 546.228344,73.6616724 544.065,72.525 C541.901656,71.3883277 539.646678,70.5633359 537.3,70.05 C534.953322,69.5366641 532.643345,69.28 530.37,69.28 C525.383308,69.28 520.983352,70.2883233 517.17,72.305 C513.356648,74.3216768 510.130013,76.9433172 507.49,80.17 C504.849987,83.3966828 502.851673,87.0449797 501.495,91.115 C500.138327,95.1850204 499.46,99.2733128 499.46,103.38 C499.46,108.000023 500.266659,112.399979 501.88,116.58 C503.493341,120.760021 505.693319,124.444984 508.48,127.635 C511.266681,130.825016 514.566648,133.373324 518.38,135.28 C522.193352,137.186676 526.299978,138.14 530.7,138.14 C533.046678,138.14 535.466654,137.84667 537.96,137.26 C540.453346,136.67333 542.836655,135.756673 545.11,134.51 C547.383345,133.263327 549.50999,131.668343 551.49,129.725 C553.47001,127.781657 555.119993,125.490013 556.44,122.85 L561.28,125.16 C559.959993,128.093348 558.163345,130.696655 555.89,132.97 C553.616655,135.243345 551.086681,137.149992 548.3,138.69 C545.513319,140.230008 542.561682,141.384996 539.445,142.155 C536.328318,142.925004 533.266682,143.31 530.26,143.31 C524.90664,143.31 520.011689,142.136678 515.575,139.79 C511.138311,137.443322 507.306683,134.381686 504.08,130.605 C500.853317,126.828314 498.341676,122.538357 496.545,117.735 C494.748324,112.931643 493.85,108.036692 493.85,103.05 L493.85,103.05 Z M608.57,64.55 L613.41,64.55 L646.41,142.65 L640.47,142.65 L629.58,116.91 L592.29,116.91 L581.4,142.65 L575.35,142.65 L608.57,64.55 Z M628.04,112.29 L610.99,71.37 L593.61,112.29 L628.04,112.29 Z M668.29,142.65 L668.29,64.55 L700.74,64.55 C704.040017,64.55 707.083319,65.2466597 709.87,66.64 C712.656681,68.0333403 715.058323,69.8849885 717.075,72.195 C719.091677,74.5050116 720.668328,77.1083189 721.805,80.005 C722.941672,82.9016812 723.51,85.816652 723.51,88.75 C723.51,91.6100143 723.070004,94.37832 722.19,97.055 C721.309996,99.7316801 720.063341,102.133323 718.45,104.26 C716.836659,106.386677 714.893345,108.14666 712.62,109.54 C710.346655,110.93334 707.853347,111.849998 705.14,112.29 L724.61,142.65 L718.12,142.65 L699.2,113.17 L673.9,113.17 L673.9,142.65 L668.29,142.65 Z M673.9,108 L701.29,108 C703.783346,108 706.056656,107.450006 708.11,106.35 C710.163344,105.249994 711.923326,103.801676 713.39,102.005 C714.856674,100.208324 715.974996,98.1550116 716.745,95.845 C717.515004,93.5349885 717.9,91.1700121 717.9,88.75 C717.9,86.2566542 717.441671,83.8550116 716.525,81.545 C715.608329,79.2349885 714.361675,77.2000088 712.785,75.44 C711.208325,73.6799912 709.37501,72.2683387 707.285,71.205 C705.19499,70.1416614 702.940012,69.61 700.52,69.61 L673.9,69.61 L673.9,108 Z M749.68,142.65 L749.68,64.55 L775.64,64.55 C781.800031,64.55 787.20831,65.5766564 791.865,67.63 C796.52169,69.6833436 800.389985,72.4699824 803.47,75.99 C806.550015,79.5100176 808.859992,83.6349764 810.4,88.365 C811.940008,93.0950237 812.71,98.1366399 812.71,103.49 C812.71,109.43003 811.848342,114.801643 810.125,119.605 C808.401658,124.408357 805.926683,128.514983 802.7,131.925 C799.473317,135.335017 795.568356,137.974991 790.985,139.845 C786.401644,141.715009 781.286695,142.65 775.64,142.65 L749.68,142.65 Z M807.1,103.49 C807.1,98.5766421 806.40334,94.0483541 805.01,89.905 C803.61666,85.761646 801.58168,82.1866817 798.905,79.18 C796.22832,76.1733183 792.946686,73.8266751 789.06,72.14 C785.173314,70.4533249 780.700025,69.61 775.64,69.61 L755.29,69.61 L755.29,137.59 L775.64,137.59 C780.773359,137.59 785.301647,136.728342 789.225,135.005 C793.148353,133.281658 796.429987,130.880015 799.07,127.8 C801.710013,124.719985 803.708327,121.108354 805.065,116.965 C806.421673,112.821646 807.1,108.330024 807.1,103.49 L807.1,103.49 Z" id="STOCARD" fill="#E74149"></path>
        <path d="M123.749286,67.0380358 L123.749286,45.2551433 C123.749286,44.153553 122.861695,43.2729972 121.766796,43.2729972 L72.260438,43.2729972 C71.1614307,43.2729972 70.2779483,44.1604342 70.2779483,45.2551433 L70.2779483,72.9775696 C70.2779483,74.0791599 71.1655392,74.9597157 72.260438,74.9597157 L115.331466,74.9597157 L130.645835,74.9597157 L160.381585,74.9597157 C164.212751,74.9597157 167.318524,78.0679019 167.318524,81.8918509 L167.318524,133.381438 C167.318524,137.20995 164.208426,140.313573 160.381585,140.313573 L71.2736275,140.313573 C67.4424619,140.313573 64.3366886,137.205387 64.3366886,133.381438 L64.3366886,91.0473867 C64.3301299,90.9668161 64.3267863,90.885336 64.3267863,90.803075 C64.3267863,89.1624415 65.6567826,87.8324452 67.2974161,87.8324452 C68.9326353,87.8324452 70.2592642,89.1536775 70.2680026,90.7868421 L70.2779483,90.7868421 L70.2779483,131.402118 C70.2779483,133.050542 71.6118013,134.372313 73.2571923,134.372313 L158.39802,134.372313 C160.054339,134.372313 161.377264,133.042511 161.377264,131.402118 L161.377264,83.8711706 C161.377264,82.2227462 160.043411,80.9009755 158.39802,80.9009755 L77.2380745,80.9009755 L71.2688238,80.9009755 C67.4403112,80.9009755 64.3366886,77.8025113 64.3366886,73.9732273 L64.3366886,44.2594856 C64.3366886,40.433396 67.4448748,37.3317374 71.2688238,37.3317374 L122.758411,37.3317374 C126.586923,37.3317374 129.690546,40.4302016 129.690546,44.2594856 L129.690546,67.0380361 C129.690546,68.6786697 128.360549,70.008666 126.719916,70.008666 C125.079282,70.008666 123.749286,68.6786697 123.749286,67.0380361 L123.749286,67.0380358 Z M141.08334,112.631459 C144.079787,112.631459 146.508887,110.20781 146.508887,107.218087 C146.508887,104.228364 144.079787,101.804715 141.08334,101.804715 C138.086892,101.804715 135.657792,104.228364 135.657792,107.218087 C135.657792,110.20781 138.086892,112.631459 141.08334,112.631459 L141.08334,112.631459 Z" id="Shape" fill="#E74149" transform="translate(115.822655, 88.822655) rotate(-45.000000) translate(-115.822655, -88.822655) "></path>
    </g>
</svg>
